<svg viewBox="0 0 44 43" xmlns="http://www.w3.org/2000/svg" width="100%" height="100%"><polygon fill="#0b021a" points="5.4,0 5.4,14.3 11,14.3 11,21.5 18.3,21.5 18.3,28.7 32.6,28.7 32.6,21.5 32.6,16.8 32.6,14.3 32.6,12 32.6,0 "/><rect x="36.7" y="35.8" width="7.3" height="7.2" fill="currentColor" /><rect x="14.7" y="21.5" width="7.3" height="7.2" fill="currentColor" /><rect x="7.3" y="14.3" width="7.3" height="7.2" fill="currentColor" /><polygon points="7.3,7.2 7.3,0 0,0 0,7.2 0,14.3 7.3,14.3" fill="currentColor" /><polygon points="29.3,7.2 29.3,14.3 29.3,14.3 29.3,21.5 29.3,28.7 22,28.7 22,35.8 29.3,35.8 36.7,35.8 36.7,28.7 36.7,21.5 36.7,14.3 36.7,14.3 36.7,7.2 36.7,0 29.3,0" fill="currentColor" /></svg>