<svg viewBox="0 0 33 33" xmlns="http://www.w3.org/2000/svg" width="100%" height="100%"><path d="M6.45664 4.30402H4.30457V6.45602H6.45664V4.30402Z" fill="currentColor"/><path d="M6.45664 26.5437H4.30457V28.6957H6.45664V26.5437Z" fill="currentColor"/><path d="M10.7609 2.15176H6.45654V4.30377H10.7609V2.15176Z" fill="currentColor"/><path d="M22.2388 0H10.7606V2.152H22.2388V0Z" fill="currentColor"/><path d="M22.2388 30.8484H10.7606V33.0004H22.2388V30.8484Z" fill="currentColor"/><path d="M26.5438 2.15176H22.2394V4.30377H26.5438V2.15176Z" fill="currentColor"/><path d="M30.8476 6.45645H28.6957V10.7608H30.8476V6.45645Z" fill="currentColor"/><path d="M33.0001 10.7609H30.848V22.2391H33.0001V10.7609Z" fill="currentColor"/><path d="M30.8476 22.2392H28.6957V26.5436H30.8476V22.2392Z" fill="currentColor"/><path d="M4.30393 6.45645H2.15198V10.7608H4.30393V6.45645Z" fill="currentColor"/><path d="M2.15195 10.7609H0V22.2391H2.15195V10.7609Z" fill="currentColor"/><path d="M4.30393 22.2392H2.15198V26.5436H4.30393V22.2392Z" fill="currentColor"/><path d="M10.7609 28.6959H6.45654V30.8479H10.7609V28.6959Z" fill="currentColor"/><path d="M26.5438 28.6959H22.2394V30.8479H26.5438V28.6959Z" fill="currentColor"/><path d="M28.6957 4.30402H26.5437V6.45602H28.6957V4.30402Z" fill="currentColor"/><path d="M28.6957 26.5437H26.5437V28.6957H28.6957V26.5437Z" fill="currentColor"/><path d="M25.6069 15.4582V11.3327C25.5866 11.3028 25.5678 11.273 25.5476 11.2444C25.1743 10.985 24.7391 11.0667 24.3349 11.0641C23.9306 11.0615 23.7406 10.8954 23.7393 10.4907C23.7379 10.0859 23.8269 9.67593 23.5506 9.32305L23.4603 9.26468H19.1485C19.1889 10.0016 19.0973 10.6425 19.2226 11.3586H21.3233C21.2801 12.0787 21.3758 12.7195 21.2613 13.3474H12.6874C12.7157 12.6534 12.6308 12.0112 12.7467 11.3534C13.4581 11.2795 14.1507 11.3923 14.8555 11.2756C14.8096 10.5763 14.9107 9.93413 14.7881 9.28676H10.5759C10.4641 9.96657 10.6096 10.636 10.4735 11.3391H8.35935V15.4907H6.26404V21.718H8.32431C8.44558 22.4224 8.28389 23.0932 8.43211 23.7458H12.6402C12.7588 23.0633 12.5944 22.3913 12.7453 21.7413H21.264C21.3826 22.4238 21.2182 23.0945 21.3691 23.7445H25.5759C25.6944 23.062 25.5274 22.3913 25.6958 21.6894H27.717V15.4621L25.6069 15.4582ZM14.7867 19.5903C14.113 19.6617 13.4541 19.6163 12.7372 19.6176V15.492H14.7867V19.5903ZM21.2855 19.5994C20.5878 19.6416 19.888 19.6416 19.1902 19.5994V15.5011C19.8881 15.4605 20.588 15.4626 21.2855 15.5076V19.5994Z" stroke="currentColor" stroke-miterlimit="10"/></svg>