<svg viewBox="0 0 33 33" xmlns="http://www.w3.org/2000/svg" width="100%" height="100%"><path d="M10.5852 10.0089H9.53906V11.0551H10.5852V10.0089Z" fill="currentColor"/><path d="M23.4888 10.0089H22.4426V11.0551H23.4888V10.0089Z" fill="currentColor"/><path d="M10.5852 22.9125H9.53906V23.9587H10.5852V22.9125Z" fill="currentColor"/><path d="M23.4888 22.9125H22.4426V23.9587H23.4888V22.9125Z" fill="currentColor"/><path d="M9.5391 11.0551H8.49292V22.9122H9.5391V11.0551Z" fill="currentColor"/><path d="M24.535 11.0551H23.4888V22.9122H24.535V11.0551Z" fill="currentColor"/><path d="M22.4424 8.96277H10.5853V10.0089H22.4424V8.96277Z" fill="currentColor"/><path d="M22.4424 23.9586H10.5853V25.0048H22.4424V23.9586Z" fill="currentColor"/><path d="M13.3752 14.8914H12.329V19.0762H13.3752V14.8914Z" fill="currentColor"/><path d="M20.6986 14.8914H19.6525V19.0762H20.6986V14.8914Z" fill="currentColor"/><path d="M18.6064 12.7988H14.4216V13.8449H18.6064V12.7988Z" fill="currentColor"/><path d="M18.6064 20.1223H14.4216V21.1685H18.6064V20.1223Z" fill="currentColor"/><path d="M14.4215 13.8453H13.3754V14.8915H14.4215V13.8453Z" fill="currentColor"/><path d="M19.6525 13.8453H18.6063V14.8915H19.6525V13.8453Z" fill="currentColor"/><path d="M14.4215 19.0762H13.3754V20.1224H14.4215V19.0762Z" fill="currentColor"/><path d="M19.6525 19.0762H18.6063V20.1224H19.6525V19.0762Z" fill="currentColor"/><path d="M21.7449 11.7526H20.35V13.1475H21.7449V11.7526Z" fill="currentColor"/><path d="M6.45653 5.24585H4.30444V7.39787H6.45653V5.24585Z" fill="currentColor"/><path d="M6.45653 27.4856H4.30444V29.6376H6.45653V27.4856Z" fill="currentColor"/><path d="M10.7611 3.0936H6.45667V5.24561H10.7611V3.0936Z" fill="currentColor"/><path d="M22.239 0.941742H10.7607V3.09376H22.239V0.941742Z" fill="currentColor"/><path d="M22.239 31.7903H10.7607V33.9424H22.239V31.7903Z" fill="currentColor"/><path d="M26.5439 3.0936H22.2395V5.24561H26.5439V3.0936Z" fill="currentColor"/><path d="M30.8479 7.39832H28.6959V11.7027H30.8479V7.39832Z" fill="currentColor"/><path d="M33.0002 11.7029H30.8481V23.1812H33.0002V11.7029Z" fill="currentColor"/><path d="M30.8479 23.1811H28.6959V27.4855H30.8479V23.1811Z" fill="currentColor"/><path d="M4.30419 7.39832H2.15222V11.7027H4.30419V7.39832Z" fill="currentColor"/><path d="M2.15197 11.7029H0V23.1812H2.15197V11.7029Z" fill="currentColor"/><path d="M4.30419 23.1811H2.15222V27.4855H4.30419V23.1811Z" fill="currentColor"/><path d="M10.7611 29.6379H6.45667V31.7899H10.7611V29.6379Z" fill="currentColor"/><path d="M26.5439 29.6379H22.2395V31.7899H26.5439V29.6379Z" fill="currentColor"/><path d="M28.696 5.24585H26.5441V7.39787H28.696V5.24585Z" fill="currentColor"/><path d="M28.696 27.4856H26.5441V29.6376H28.696V27.4856Z" fill="currentColor"/></svg>