<svg viewBox="0 0 33 33" xmlns="http://www.w3.org/2000/svg" width="100%" height="100%"><path d="M6.45651 4.30402H4.30444V6.45602H6.45651V4.30402Z" fill="currentColor"/><path d="M6.45651 26.5437H4.30444V28.6957H6.45651V26.5437Z" fill="currentColor"/><path d="M10.7609 2.15176H6.45654V4.30377H10.7609V2.15176Z" fill="currentColor"/><path d="M22.2387 0H10.7605V2.152H22.2387V0Z" fill="currentColor"/><rect x="7" y="12" width="19" height="2" fill="currentColor"/><rect x="7" y="16" width="19" height="2" fill="currentColor"/><rect x="7" y="20" width="19" height="2" fill="currentColor"/><path d="M22.2387 30.8484H10.7605V33.0004H22.2387V30.8484Z" fill="currentColor"/><path d="M26.5439 2.15176H22.2395V4.30377H26.5439V2.15176Z" fill="currentColor"/><path d="M30.8478 6.45645H28.6958V10.7608H30.8478V6.45645Z" fill="currentColor"/><path d="M33 10.7609H30.8479V22.2391H33V10.7609Z" fill="currentColor"/><path d="M30.8478 22.2392H28.6958V26.5436H30.8478V22.2392Z" fill="currentColor"/><path d="M4.30405 6.45645H2.1521V10.7608H4.30405V6.45645Z" fill="currentColor"/><path d="M2.15195 10.7609H0V22.2391H2.15195V10.7609Z" fill="currentColor"/><path d="M4.30405 22.2392H2.1521V26.5436H4.30405V22.2392Z" fill="currentColor"/><path d="M10.7609 28.6959H6.45654V30.8479H10.7609V28.6959Z" fill="currentColor"/><path d="M26.5439 28.6959H22.2395V30.8479H26.5439V28.6959Z" fill="currentColor"/><path d="M28.6957 4.30402H26.5437V6.45602H28.6957V4.30402Z" fill="currentColor"/><path d="M28.6957 26.5437H26.5437V28.6957H28.6957V26.5437Z" fill="currentColor"/></svg>