<svg viewBox="0 0 33 33" fill="none" xmlns="http://www.w3.org/2000/svg" width="100%" height="100%"><path d="M22.0158 7.86023H17.3878V9.1224H22.0158V7.86023Z" fill="currentColor"/><path d="M11.4973 18.7994V21.3237H12.7595V20.0615H14.0221V18.7994H11.4973Z" fill="currentColor"/><path d="M10.2351 23.8481V22.5859H8.9729V25.1103H20.7535V23.8481H10.2351Z" fill="currentColor"/><path d="M17.3878 9.12241H16.1257V10.3846H17.3878V9.12241Z" fill="currentColor"/><path d="M14.8636 10.3846V12.9089H13.1807V14.1711H16.1258V10.3846H14.8636Z" fill="currentColor"/><path d="M23.278 9.12241H22.0157V10.3846H23.278V9.12241Z" fill="currentColor"/><path d="M24.5405 12.9089V10.3846H23.2783V14.1711H25.8027V15.4333H27.0649V12.9089H24.5405Z" fill="currentColor"/><path d="M23.278 21.3238H22.0157V22.5859H23.278V21.3238Z" fill="currentColor"/><path d="M11.4975 21.3238H10.2354V22.5859H11.4975V21.3238Z" fill="currentColor"/><path d="M22.0159 22.5859H20.7538V23.8481H22.0159V22.5859Z" fill="currentColor"/><path d="M25.8026 15.4333H24.5405V16.6955H25.8026V15.4333Z" fill="currentColor"/><path d="M24.5405 16.6958H23.2783V21.3237H24.5405V16.6958Z" fill="currentColor"/><path d="M13.1802 11.6468H11.4973V12.909H13.1802V11.6468Z" fill="currentColor"/><path d="M11.4975 10.3846H10.2354V11.6468H11.4975V10.3846Z" fill="currentColor"/><path d="M7.71094 9.12241V16.2751H8.9731V10.3846H10.2353V9.12241H7.71094Z" fill="currentColor"/><path d="M10.2351 16.2751H8.9729V17.5373H10.2351V16.2751Z" fill="currentColor"/><path d="M11.4975 17.5372H10.2354V18.7994H11.4975V17.5372Z" fill="currentColor"/><path d="M7.36324 4.30435H5.21118V6.45635H7.36324V4.30435Z" fill="currentColor"/><path d="M7.36324 26.5436H5.21118V28.6956H7.36324V26.5436Z" fill="currentColor"/><path d="M11.6675 2.15195H7.36316V4.30394H11.6675V2.15195Z" fill="currentColor"/><path d="M23.1455 0H11.6674V2.15199H23.1455V0Z" fill="currentColor"/><path d="M23.1455 30.848H11.6674V33H23.1455V30.848Z" fill="currentColor"/><path d="M27.4505 2.15195H23.1461V4.30394H27.4505V2.15195Z" fill="currentColor"/><path d="M31.7542 6.45636H29.6023V10.7607H31.7542V6.45636Z" fill="currentColor"/><path d="M33.9067 10.7607H31.7546V22.2389H33.9067V10.7607Z" fill="currentColor"/><path d="M31.7542 22.2393H29.6023V26.5437H31.7542V22.2393Z" fill="currentColor"/><path d="M5.21078 6.45636H3.05884V10.7607H5.21078V6.45636Z" fill="currentColor"/><path d="M3.05868 10.7607H0.906738V22.2389H3.05868V10.7607Z" fill="currentColor"/><path d="M5.21078 22.2393H3.05884V26.5437H5.21078V22.2393Z" fill="currentColor"/><path d="M11.6675 28.6956H7.36316V30.8476H11.6675V28.6956Z" fill="currentColor"/><path d="M27.4505 28.6956H23.1461V30.8476H27.4505V28.6956Z" fill="currentColor"/><path d="M29.6024 4.30435H27.4504V6.45635H29.6024V4.30435Z" fill="currentColor"/><path d="M29.6024 26.5436H27.4504V28.6956H29.6024V26.5436Z" fill="currentColor"/></svg>